HIERARCHY
ROOT Hips
{
	OFFSET 0.000000 0.000000 0.000000
	CHANNELS 6 Xposition Yposition Zposition Xrotation Yrotation Zrotation
	JOINT LeftUpLeg_virtual
	{
		OFFSET 0.000000 0.000000 0.000000
		CHANNELS 3 Xrotation Yrotation Zrotation
		JOINT LeftUpLeg
		{
			OFFSET 10.205400 -3.823500 0.155100
			CHANNELS 3 Xrotation Yrotation Zrotation
			JOINT LeftLeg
			{
				OFFSET 0.708757 -12.982077 0.567790
				CHANNELS 3 Xrotation Yrotation Zrotation
				JOINT LeftFoot
				{
					OFFSET -0.708756 -10.717838 -2.184338
					CHANNELS 3 Xrotation Yrotation Zrotation
					JOINT LeftToeBase
					{
						OFFSET 0.108149 -7.191104 7.560241
						CHANNELS 3 Xrotation Yrotation Zrotation
						JOINT LeftToe_End
						{
							OFFSET 0.070230 0.081724 4.490308
							CHANNELS 3 Xrotation Yrotation Zrotation
							End Site
							{
								OFFSET 0 0 0
							}
						}
					}
				}
			}
		}
	}
	JOINT RightUpLeg_virtual
	{
		OFFSET 0.000000 0.000000 0.000000
		CHANNELS 3 Xrotation Yrotation Zrotation
		JOINT RightUpLeg
		{
			OFFSET -10.205400 -3.823500 0.005500
			CHANNELS 3 Xrotation Yrotation Zrotation
			JOINT RightLeg
			{
				OFFSET -0.708756 -12.982134 0.610632
				CHANNELS 3 Xrotation Yrotation Zrotation
				JOINT RightFoot
				{
					OFFSET 0.708754 -10.717769 -1.945823
					CHANNELS 3 Xrotation Yrotation Zrotation
					JOINT RightToeBase
					{
						OFFSET -0.108140 -7.191069 7.372968
						CHANNELS 3 Xrotation Yrotation Zrotation
						JOINT RightToe_End
						{
							OFFSET -0.070227 0.081735 4.479403
							CHANNELS 3 Xrotation Yrotation Zrotation
							End Site
							{
								OFFSET 0 0 0
							}
						}
					}
				}
			}
		}
	}
	JOINT Spine_virtual
	{
		OFFSET 0.000000 0.000000 0.000000
		CHANNELS 3 Xrotation Yrotation Zrotation
		JOINT Spine
		{
			OFFSET 0.000000 6.876099 0.125700
			CHANNELS 3 Xrotation Yrotation Zrotation
			JOINT Spine1
			{
				OFFSET 0.000000 5.730043 0.104720
				CHANNELS 3 Xrotation Yrotation Zrotation
				JOINT Spine1_split
				{
					OFFSET 0.000000 5.730043 0.104720
					CHANNELS 3 Xrotation Yrotation Zrotation
					JOINT Spine2
					{
						OFFSET 0.000000 5.730043 0.104720
						CHANNELS 3 Xrotation Yrotation Zrotation
						JOINT Neck_virtual
						{
							OFFSET 0.000000 0.000000 0.000000
							CHANNELS 3 Xrotation Yrotation Zrotation
							JOINT Neck
							{
								OFFSET 0.000000 10.314075 0.188496
								CHANNELS 3 Xrotation Yrotation Zrotation
								JOINT Head
								{
									OFFSET 0.000000 7.643700 -2.377400
									CHANNELS 3 Xrotation Yrotation Zrotation
									JOINT HeadTop_End
									{
										OFFSET 0.000000 43.788605 -13.619600
										CHANNELS 3 Xrotation Yrotation Zrotation
										End Site
										{
											OFFSET 0 0 0
										}
									}
								}
							}
						}
						JOINT LeftShoulder_virtual
						{
							OFFSET 0.000000 0.000000 0.000000
							CHANNELS 3 Xrotation Yrotation Zrotation
							JOINT LeftShoulder
							{
								OFFSET 2.196100 4.412489 0.087492
								CHANNELS 3 Xrotation Yrotation Zrotation
								JOINT LeftShoulder_split
								{
									OFFSET 2.196100 4.412489 0.087492
									CHANNELS 3 Xrotation Yrotation Zrotation
									JOINT LeftArm
									{
										OFFSET 8.771219 -2.981674 -0.026999
										CHANNELS 3 Xrotation Yrotation Zrotation
										JOINT LeftForeArm
										{
											OFFSET 8.512804 0.000000 -0.000000
											CHANNELS 3 Xrotation Yrotation Zrotation
											JOINT LeftHand
											{
												OFFSET 18.484802 0.000000 -0.000000
												CHANNELS 3 Xrotation Yrotation Zrotation
												End Site
												{
													OFFSET 0 0 0
												}
											}
										}
									}
								}
							}
						}
						JOINT RightShoulder_virtual
						{
							OFFSET 0.000000 0.000000 0.000000
							CHANNELS 3 Xrotation Yrotation Zrotation
							JOINT RightShoulder
							{
								OFFSET -2.196100 4.412496 0.070690
								CHANNELS 3 Xrotation Yrotation Zrotation
								JOINT RightShoulder_split
								{
									OFFSET -2.196100 4.412496 0.070690
									CHANNELS 3 Xrotation Yrotation Zrotation
									JOINT RightArm
									{
										OFFSET -8.771282 -2.981682 -0.094208
										CHANNELS 3 Xrotation Yrotation Zrotation
										JOINT RightForeArm
										{
											OFFSET -8.494598 0.000000 0.000000
											CHANNELS 3 Xrotation Yrotation Zrotation
											JOINT RightHand
											{
												OFFSET -18.483803 0.000000 0.000001
												CHANNELS 3 Xrotation Yrotation Zrotation
												End Site
												{
													OFFSET 0 0 0
												}
											}
										}
									}
								}
							}
						}
					}
				}
			}
		}
	}
}
MOTION
Frames: 10
Frame Time: 0.03333333
-0.001311 33.491119 -0.886791 0.000000 0.000000 0.000000 2.912698 -29.017745 1.158343 -17.082231 16.719029 17.224750 28.083808 9.554265 -5.132636 -11.722181 -1.484314 -9.413732 -0.184439 0.007683 -0.261462 0.000000 0.000000 0.000000 2.912698 -29.017745 1.158343 -14.529776 0.511743 -12.879607 22.479008 10.998956 2.299484 -11.779428 -2.097174 8.559156 -1.288092 -0.016829 0.151288 0.000000 0.000000 0.000000 2.912698 -29.017745 1.158343 7.836598 -0.331481 -2.654184 1.099248 -0.880570 2.383464 0.000000 0.000000 0.000000 0.000000 0.000000 0.000000 1.108680 -0.590432 2.446365 -3.841838 18.019058 -6.496489 -6.332743 13.021565 0.301528 0.000000 0.000000 0.000000 1.108680 -0.590432 2.446365 -0.057392 -8.759455 -0.060964 0.000000 0.000000 0.000000 -55.250828 0.329454 -41.449341 11.584302 -65.827307 13.005458 0.000000 0.000000 0.000000 1.108680 -0.590432 2.446365 4.849309 7.760154 5.560465 0.000000 0.000000 0.000000 -0.933457 -2.176914 61.845642 11.299297 18.943574 -3.987604 0.000000 0.000000 0.000000 
-0.124482 33.264523 -0.748016 0.000000 0.000000 0.000000 3.262097 -26.760526 1.360861 -19.637870 15.421794 17.067012 30.854348 7.868173 -4.517726 -12.659162 -1.145760 -9.289505 -0.159935 0.007583 -0.289755 0.000000 0.000000 0.000000 3.262097 -26.760526 1.360861 -14.428355 0.540948 -13.234569 25.726256 10.581309 2.718999 -15.127672 -3.559163 7.858691 -1.288101 -0.016837 0.151298 0.000000 0.000000 0.000000 3.262097 -26.760526 1.360861 7.263642 0.194962 -3.103536 1.305102 -0.239098 2.460833 0.000000 0.000000 0.000000 0.000000 0.000000 0.000000 1.292174 -0.018790 2.426595 -4.964534 16.791072 -6.023532 -6.880097 11.820295 1.376510 0.000000 0.000000 0.000000 1.292174 -0.018790 2.426595 -0.257676 -6.543737 -1.038071 0.000000 0.000000 0.000000 -54.949627 4.638174 -38.362666 19.162400 -71.200877 19.813568 0.000000 0.000000 0.000000 1.292174 -0.018790 2.426595 4.776434 8.473873 5.863063 0.000000 0.000000 0.000000 0.334844 -2.740970 62.151204 13.457528 18.694453 -5.471689 0.000000 0.000000 0.000000 
-0.232493 33.052971 -0.581041 0.000000 0.000000 0.000000 3.569546 -23.695639 1.366690 -22.566378 14.218956 17.159020 33.642418 7.501392 -4.103524 -13.302733 -3.138798 -9.263014 -0.145440 0.007513 -0.306475 0.000000 0.000000 0.000000 3.569546 -23.695639 1.366690 -13.258557 0.097463 -13.167183 28.090258 8.659818 2.347235 -18.456085 -4.434852 8.106252 -1.175332 -0.016531 0.151330 0.000000 0.000000 0.000000 3.569546 -23.695639 1.366690 6.424146 0.938993 -3.114052 1.662630 0.618022 2.465395 0.000000 0.000000 0.000000 0.000000 0.000000 0.000000 1.619628 0.757047 2.301281 -6.324931 14.707610 -5.323786 -7.042617 9.995199 2.091715 0.000000 0.000000 0.000000 1.619628 0.757047 2.301281 -0.430497 -4.648622 -2.168002 0.000000 0.000000 0.000000 -55.715827 9.563774 -35.523807 35.115266 -76.191279 35.108600 0.000000 0.000000 0.000000 1.619628 0.757047 2.301281 4.681188 9.389226 6.355675 0.000000 0.000000 0.000000 2.453032 -3.699826 62.477906 16.528078 18.324161 -8.202589 0.000000 0.000000 0.000000 
-0.306444 32.870914 -0.372219 0.000000 0.000000 0.000000 3.674085 -18.844663 1.080893 -26.425720 13.764318 17.324869 35.785007 5.027661 -3.941849 -12.836407 -5.746071 -7.813315 -0.142082 0.007484 -0.310362 0.000000 0.000000 0.000000 3.674085 -18.844663 1.080893 -9.879727 -1.040459 -12.740483 28.523616 6.314053 1.997659 -21.702638 -6.583871 8.482902 -1.054660 -0.016285 0.154575 0.000000 0.000000 0.000000 3.674085 -18.844663 1.080893 5.440039 1.874969 -2.476558 2.064610 1.698938 2.291585 0.000000 0.000000 0.000000 0.000000 0.000000 0.000000 1.996164 1.736918 1.970748 -7.595027 11.075828 -4.165819 -6.842084 7.133091 2.266341 0.000000 0.000000 0.000000 1.996164 1.736918 1.970748 -0.558687 -3.354604 -3.234183 0.000000 0.000000 0.000000 -58.366644 14.790539 -32.753516 58.171888 -80.910073 57.132961 0.000000 0.000000 0.000000 1.996164 1.736918 1.970748 4.515301 10.793707 7.036804 0.000000 0.000000 0.000000 4.746205 -5.952378 62.668263 19.585610 17.472128 -11.371094 0.000000 0.000000 0.000000 
-0.349014 32.735428 -0.133442 0.000000 0.000000 0.000000 3.516939 -11.946486 0.693560 -29.768936 10.791192 15.693842 36.684536 3.449328 -3.895101 -10.701920 -8.180455 -6.079067 -0.159490 0.007594 -0.313319 0.000000 0.000000 0.000000 3.516939 -11.946486 0.693560 -3.742119 -2.851481 -11.663468 26.201266 2.903770 1.683872 -24.375975 -9.743896 9.085793 -1.252499 -0.022629 0.199004 0.000000 0.000000 0.000000 3.516939 -11.946486 0.693560 4.484278 2.876281 -1.551932 2.369284 2.891456 1.948090 0.000000 0.000000 0.000000 0.000000 0.000000 0.000000 2.300659 2.810872 1.471402 -8.641741 5.609014 -2.386056 -6.186568 3.104664 1.987697 0.000000 0.000000 0.000000 2.300659 2.810872 1.471402 -0.659532 -2.009289 -3.785635 0.000000 0.000000 0.000000 -61.433372 19.092911 -30.053488 95.294471 -83.190639 93.074120 0.000000 0.000000 0.000000 2.300659 2.810872 1.471402 4.328667 12.165033 7.524714 0.000000 0.000000 0.000000 6.548158 -8.872225 62.861496 20.623418 17.103996 -12.133723 0.000000 0.000000 0.000000 
-0.359697 32.648567 0.133192 0.000000 0.000000 0.000000 3.285322 -3.460399 0.377250 -32.542388 6.450484 12.397312 35.692038 2.274155 -3.879286 -6.722943 -10.357374 -4.242575 -0.260465 0.027865 -0.324444 0.000000 0.000000 0.000000 3.285322 -3.460399 0.377250 4.307502 -5.756080 -9.657937 21.114492 -2.112602 1.189741 -25.231847 -12.136526 10.477363 -2.095238 -0.053110 0.333336 0.000000 0.000000 0.000000 3.285322 -3.460399 0.377250 3.375950 3.971309 -0.770720 2.608963 4.158199 1.580372 0.000000 0.000000 0.000000 0.000000 0.000000 0.000000 2.562666 3.955187 0.956369 -9.675935 -1.203803 -0.247053 -4.912357 -1.858588 1.490865 0.000000 0.000000 0.000000 2.562666 3.955187 0.956369 -0.759646 -0.417832 -3.957246 0.000000 0.000000 0.000000 -65.134036 21.425824 -27.808285 123.436176 -83.194730 120.060696 0.000000 0.000000 0.000000 2.562666 3.955187 0.956369 4.203570 12.952758 7.891070 0.000000 0.000000 0.000000 7.764264 -11.211872 62.380541 20.142860 17.769331 -11.049308 0.000000 0.000000 0.000000 
-0.321905 32.626904 0.440842 0.000000 0.000000 0.000000 2.996892 5.660199 0.047976 -34.534420 2.111175 8.393678 32.755897 1.238808 -3.861647 -1.420497 -12.618809 -2.550021 -0.354238 0.082630 -0.326357 0.000000 0.000000 0.000000 2.996892 5.660199 0.047976 11.825951 -11.053083 -7.192986 16.204496 -8.518718 0.261441 -23.343246 -10.532404 14.027368 -5.135586 -0.161301 0.748010 0.000000 0.000000 0.000000 2.996892 5.660199 0.047976 2.255047 5.190770 -0.100334 2.710159 5.505500 1.197456 0.000000 0.000000 0.000000 0.000000 0.000000 0.000000 2.714823 5.182822 0.427021 -10.989991 -9.060172 2.261213 -3.152857 -7.416044 0.484911 0.000000 0.000000 0.000000 2.714823 5.182822 0.427021 -0.883595 1.834643 -3.848099 0.000000 0.000000 0.000000 -67.743339 21.818047 -26.104916 136.648344 -83.534498 132.345147 0.000000 0.000000 0.000000 2.714823 5.182822 0.427021 4.141344 13.243511 8.239610 0.000000 0.000000 0.000000 8.896496 -12.914928 60.950252 20.622079 18.910089 -11.537430 0.000000 0.000000 0.000000 
-0.243737 32.638493 0.766218 0.000000 0.000000 0.000000 2.483603 14.368560 -0.374077 -35.621014 -2.187646 4.520841 29.019076 0.294313 -3.810903 3.962361 -14.480423 -1.391687 -0.398022 0.164180 -0.312912 0.000000 0.000000 0.000000 2.483603 14.368560 -0.374077 16.966347 -17.096686 -5.235165 15.175436 -13.925905 -0.500819 -19.997942 -6.322244 18.809603 -11.811000 -0.381090 1.158641 0.000000 0.000000 0.000000 2.483603 14.368560 -0.374077 1.238536 6.491276 0.970466 2.752098 6.907780 0.631421 0.000000 0.000000 0.000000 0.000000 0.000000 0.000000 2.860155 6.465212 -0.280725 -12.071956 -17.686394 5.601661 -1.781661 -13.045101 -1.537555 0.000000 0.000000 0.000000 2.860155 6.465212 -0.280725 -1.023909 4.299728 -3.422119 0.000000 0.000000 0.000000 -68.987424 21.359412 -24.972920 177.070578 -86.221562 171.402996 0.000000 0.000000 0.000000 2.860155 6.465212 -0.280725 4.097236 13.349931 9.054375 0.000000 0.000000 0.000000 10.267675 -13.805838 58.081374 22.270320 20.314627 -13.460915 0.000000 0.000000 0.000000 
-0.128422 32.667633 1.081755 0.000000 0.000000 0.000000 1.686974 22.077697 -0.869734 -36.069133 -6.510605 1.262245 25.564216 -0.625100 -3.750696 8.517249 -15.679626 -0.879542 -0.348959 0.265119 -0.278272 0.000000 0.000000 0.000000 1.686974 22.077697 -0.869734 20.995909 -20.103748 -3.442132 15.263123 -16.703386 -1.252491 -15.210643 -3.910430 22.713710 -19.785245 -0.629454 1.096697 0.000000 0.000000 0.000000 1.686974 22.077697 -0.869734 -0.079120 7.846579 2.377897 2.857695 8.252216 0.205607 0.000000 0.000000 0.000000 0.000000 0.000000 0.000000 3.101502 7.738920 -0.806371 -12.183989 -25.830345 9.345655 -1.479359 -18.094459 -4.247247 0.000000 0.000000 0.000000 3.101502 7.738920 -0.806371 -1.250613 8.158586 -3.123601 0.000000 0.000000 0.000000 -69.937811 19.961090 -25.380618 -109.074030 -85.465508 -115.880061 0.000000 0.000000 0.000000 3.101502 7.738920 -0.806371 4.043555 13.601345 9.615106 0.000000 0.000000 0.000000 11.857437 -14.070338 54.291275 24.081821 22.119011 -15.212807 0.000000 0.000000 0.000000 
0.064377 32.741692 1.382212 0.000000 0.000000 0.000000 0.544216 28.151545 -1.309142 -35.881282 -10.736903 -1.152868 23.230054 -0.955191 -3.712793 11.469721 -16.454969 -0.803256 -0.171260 0.378615 -0.209443 0.000000 0.000000 0.000000 0.544216 28.151545 -1.309142 23.508089 -20.104928 -2.190319 15.713195 -16.252891 -2.086206 -10.504735 -3.100957 23.865408 -25.632879 -1.162856 2.059953 0.000000 0.000000 0.000000 0.544216 28.151545 -1.309142 -1.566484 9.075320 3.828313 2.906593 9.389990 0.072694 0.000000 0.000000 0.000000 0.000000 0.000000 0.000000 3.283108 8.864861 -0.993809 -10.872730 -32.442217 13.316824 -2.239931 -22.169460 -7.221737 0.000000 0.000000 0.000000 3.283108 8.864861 -0.993809 -1.376990 10.995789 -3.586195 0.000000 0.000000 0.000000 -71.235308 19.046964 -23.141077 -84.387144 -84.022829 -91.256259 0.000000 0.000000 0.000000 3.283108 8.864861 -0.993809 3.978230 14.074308 9.409802 0.000000 0.000000 0.000000 13.529934 -13.796385 50.538878 26.419172 24.063054 -17.837652 0.000000 0.000000 0.000000 
